<svg width="16" height="11" viewBox="0 0 16 11" fill="none" xmlns="http://www.w3.org/2000/svg">
<path d="M2.5825 6.02583H12.0517C12.5271 6.02583 12.9125 5.64042 12.9125 5.165C12.9125 4.68958 12.5271 4.30417 12.0517 4.30417H2.5825M0 0C0 0.950851 0.770817 1.72167 1.72167 1.72167H13.7733C14.7242 1.72167 15.495 0.950851 15.495 0M6.02583 9.46917C6.02583 9.94459 6.41124 10.33 6.88667 10.33H8.60833C9.08376 10.33 9.46917 9.94459 9.46917 9.46917C9.46917 8.99374 9.08376 8.60833 8.60833 8.60833H6.88667C6.41124 8.60833 6.02583 8.99374 6.02583 9.46917Z" fill="white"/>
</svg>
