<svg width="17" height="18" viewBox="0 0 17 18" fill="none" xmlns="http://www.w3.org/2000/svg">
<mask id="mask0_64_46" style="mask-type:luminance" maskUnits="userSpaceOnUse" x="0" y="0" width="17" height="18">
<path d="M16.8023 7.11628H8.69767V10.4767H13.3628C12.9279 12.6116 11.1093 13.8372 8.69767 13.8372C5.85116 13.8372 3.55814 11.5442 3.55814 8.69767C3.55814 5.85116 5.85116 3.55814 8.69767 3.55814C9.92326 3.55814 11.0302 3.99302 11.9 4.70465L14.4302 2.17442C12.8884 0.830233 10.9116 0 8.69767 0C3.87442 0 0 3.87442 0 8.69767C0 13.5209 3.87442 17.3953 8.69767 17.3953C13.0465 17.3953 17 14.2326 17 8.69767C17 8.18372 16.9209 7.63023 16.8023 7.11628Z" fill="white"/>
</mask>
<g mask="url(#mask0_64_46)">
<path d="M-0.790649 13.8372V3.55811L5.93028 8.69764L-0.790649 13.8372Z" fill="#FBBC05"/>
</g>
<mask id="mask1_64_46" style="mask-type:luminance" maskUnits="userSpaceOnUse" x="0" y="0" width="17" height="18">
<path d="M16.8023 7.11628H8.69767V10.4767H13.3628C12.9279 12.6116 11.1093 13.8372 8.69767 13.8372C5.85116 13.8372 3.55814 11.5442 3.55814 8.69767C3.55814 5.85116 5.85116 3.55814 8.69767 3.55814C9.92326 3.55814 11.0302 3.99302 11.9 4.70465L14.4302 2.17442C12.8884 0.830233 10.9116 0 8.69767 0C3.87442 0 0 3.87442 0 8.69767C0 13.5209 3.87442 17.3953 8.69767 17.3953C13.0465 17.3953 17 14.2326 17 8.69767C17 8.18372 16.9209 7.63023 16.8023 7.11628Z" fill="white"/>
</mask>
<g mask="url(#mask1_64_46)">
<path d="M-0.790649 3.55807L5.93028 8.6976L8.69772 6.28597L18.1861 4.74411V-0.790771H-0.790649V3.55807Z" fill="#EA4335"/>
</g>
<mask id="mask2_64_46" style="mask-type:luminance" maskUnits="userSpaceOnUse" x="0" y="0" width="17" height="18">
<path d="M16.8023 7.11628H8.69767V10.4767H13.3628C12.9279 12.6116 11.1093 13.8372 8.69767 13.8372C5.85116 13.8372 3.55814 11.5442 3.55814 8.69767C3.55814 5.85116 5.85116 3.55814 8.69767 3.55814C9.92326 3.55814 11.0302 3.99302 11.9 4.70465L14.4302 2.17442C12.8884 0.830233 10.9116 0 8.69767 0C3.87442 0 0 3.87442 0 8.69767C0 13.5209 3.87442 17.3953 8.69767 17.3953C13.0465 17.3953 17 14.2326 17 8.69767C17 8.18372 16.9209 7.63023 16.8023 7.11628Z" fill="white"/>
</mask>
<g mask="url(#mask2_64_46)">
<path d="M-0.790649 13.8371L11.0698 4.74411L14.1931 5.13946L18.1861 -0.790771V18.186H-0.790649V13.8371Z" fill="#34A853"/>
</g>
<mask id="mask3_64_46" style="mask-type:luminance" maskUnits="userSpaceOnUse" x="0" y="0" width="17" height="18">
<path d="M16.8023 7.11628H8.69767V10.4767H13.3628C12.9279 12.6116 11.1093 13.8372 8.69767 13.8372C5.85116 13.8372 3.55814 11.5442 3.55814 8.69767C3.55814 5.85116 5.85116 3.55814 8.69767 3.55814C9.92326 3.55814 11.0302 3.99302 11.9 4.70465L14.4302 2.17442C12.8884 0.830233 10.9116 0 8.69767 0C3.87442 0 0 3.87442 0 8.69767C0 13.5209 3.87442 17.3953 8.69767 17.3953C13.0465 17.3953 17 14.2326 17 8.69767C17 8.18372 16.9209 7.63023 16.8023 7.11628Z" fill="white"/>
</mask>
<g mask="url(#mask3_64_46)">
<path d="M18.1861 18.186L5.93027 8.69764L4.34888 7.51159L18.1861 3.55811V18.186Z" fill="#4285F4"/>
</g>
</svg>
