<svg width="16" height="17" viewBox="0 0 16 17" fill="none" xmlns="http://www.w3.org/2000/svg">
<path d="M12.7398 11.9585C12.0943 11.9585 11.5168 12.2133 11.0752 12.6124L5.01949 9.08774C5.06196 8.8924 5.09593 8.69706 5.09593 8.49322C5.09593 8.28938 5.06196 8.09404 5.01949 7.89869L11.0072 4.40798C11.4658 4.83264 12.0689 5.09593 12.7398 5.09593C14.1497 5.09593 15.2878 3.95784 15.2878 2.54797C15.2878 1.13809 14.1497 0 12.7398 0C11.33 0 10.1919 1.13809 10.1919 2.54797C10.1919 2.7518 10.2258 2.94715 10.2683 3.14249L4.28058 6.6332C3.82195 6.20854 3.21893 5.94525 2.54797 5.94525C1.13809 5.94525 0 7.08334 0 8.49322C0 9.90309 1.13809 11.0412 2.54797 11.0412C3.21893 11.0412 3.82195 10.7779 4.28058 10.3532L10.3278 13.8779C10.2853 14.0563 10.2598 14.2431 10.2598 14.4385C10.2598 15.8059 11.3724 16.91 12.7398 16.91C14.1072 16.91 15.2199 15.8059 15.2199 14.4385C15.2199 13.0711 14.1072 11.9585 12.7398 11.9585ZM12.7398 1.69864C13.207 1.69864 13.5892 2.08084 13.5892 2.54797C13.5892 3.01509 13.207 3.39729 12.7398 3.39729C12.2727 3.39729 11.8905 3.01509 11.8905 2.54797C11.8905 2.08084 12.2727 1.69864 12.7398 1.69864ZM2.54797 9.34254C2.08084 9.34254 1.69864 8.96035 1.69864 8.49322C1.69864 8.02609 2.08084 7.6439 2.54797 7.6439C3.01509 7.6439 3.39729 8.02609 3.39729 8.49322C3.39729 8.96035 3.01509 9.34254 2.54797 9.34254ZM12.7398 15.2878C12.2727 15.2878 11.8905 14.9056 11.8905 14.4385C11.8905 13.9713 12.2727 13.5892 12.7398 13.5892C13.207 13.5892 13.5892 13.9713 13.5892 14.4385C13.5892 14.9056 13.207 15.2878 12.7398 15.2878Z" fill="white"/>
</svg>
